<svg width="30" height="30" viewBox="0 0 30 30" fill="none" xmlns="http://www.w3.org/2000/svg">
<path d="M26.2143 6H4.78571C4.31211 6 3.85791 6.18814 3.52302 6.52302C3.18814 6.85791 3 7.31211 3 7.78571V22.0714C3 22.545 3.18814 22.9992 3.52302 23.3341C3.85791 23.669 4.31211 23.8571 4.78571 23.8571H26.2143C26.6879 23.8571 27.1421 23.669 27.477 23.3341C27.8119 22.9992 28 22.545 28 22.0714V7.78571C28 7.31211 27.8119 6.85791 27.477 6.52302C27.1421 6.18814 26.6879 6 26.2143 6V6ZM24.25 7.78571L15.5 13.8393L6.75 7.78571H24.25ZM4.78571 22.0714V8.59821L14.9911 15.6607C15.1405 15.7644 15.3181 15.82 15.5 15.82C15.6819 15.82 15.8595 15.7644 16.0089 15.6607L26.2143 8.59821V22.0714H4.78571Z" fill="black"/>
</svg>
