<svg width="30" height="30" viewBox="0 0 30 30" fill="none" xmlns="http://www.w3.org/2000/svg">
<path fill-rule="evenodd" clip-rule="evenodd" d="M19.5 3.5625H10.125C9.7106 3.5625 9.31317 3.72712 9.02015 4.02015C8.72712 4.31317 8.5625 4.7106 8.5625 5.125V23.875C8.5625 24.2894 8.72712 24.6868 9.02015 24.9799C9.31317 25.2729 9.7106 25.4375 10.125 25.4375H19.5C19.9144 25.4375 20.3118 25.2729 20.6049 24.9799C20.8979 24.6868 21.0625 24.2894 21.0625 23.875V5.125C21.0625 4.7106 20.8979 4.31317 20.6049 4.02015C20.3118 3.72712 19.9144 3.5625 19.5 3.5625ZM10.125 2C9.2962 2 8.50134 2.32924 7.91529 2.91529C7.32924 3.50134 7 4.2962 7 5.125V23.875C7 24.7038 7.32924 25.4987 7.91529 26.0847C8.50134 26.6708 9.2962 27 10.125 27H19.5C20.3288 27 21.1237 26.6708 21.7097 26.0847C22.2958 25.4987 22.625 24.7038 22.625 23.875V5.125C22.625 4.2962 22.2958 3.50134 21.7097 2.91529C21.1237 2.32924 20.3288 2 19.5 2H10.125Z" fill="black"/>
<path fill-rule="evenodd" clip-rule="evenodd" d="M14.8125 23.875C15.2269 23.875 15.6243 23.7104 15.9174 23.4174C16.2104 23.1243 16.375 22.7269 16.375 22.3125C16.375 21.8981 16.2104 21.5007 15.9174 21.2076C15.6243 20.9146 15.2269 20.75 14.8125 20.75C14.3981 20.75 14.0007 20.9146 13.7076 21.2076C13.4146 21.5007 13.25 21.8981 13.25 22.3125C13.25 22.7269 13.4146 23.1243 13.7076 23.4174C14.0007 23.7104 14.3981 23.875 14.8125 23.875Z" fill="black"/>
</svg>
